<svg height='100px' width='100px'  fill="#000000" xmlns="http://www.w3.org/2000/svg" xmlns:xlink="http://www.w3.org/1999/xlink" version="1.1" x="0px" y="0px" viewBox="0 0 100 100" enable-background="new 0 0 100 100" xml:space="preserve"><path d="M60.981,37.48C49.148,48.294,29.566,51.306,11.954,51.028c-0.553,2.252-1.354,4.361-1.96,6.609  c2.621,2.271,6.513,4.405,11.175,6.071C35.051,59.958,54.314,52.252,60.981,37.48z"></path><path d="M69.264,7.5c2.162,9.749,3.715,15.005,3.715,15.005s9.614-1.147,13.923,8.342c2.886,6.355,5.117,17.41,0.251,29.693  c-9.387,23.698-36.438,33.451-49.49,31.776c-0.739-2.207-1.239-4.407-2.024-6.589c24.372-15.642,48.339-41.63,24.603-70.791  L69.264,7.5z"></path><path d="M34.752,79.808C45.518,72.6,61.717,59.35,64.235,43.595c0.039-0.247,0.042-0.492,0.074-0.739  c-8.335,14.224-27.008,22.51-44.617,26.855c0.039,2.318-0.198,4.562-0.211,6.89C23.197,78.425,28.591,79.622,34.752,79.808z"></path></svg>