<?xml version="1.0" standalone="no"?>
<!DOCTYPE svg PUBLIC "-//W3C//DTD SVG 20010904//EN"
 "http://www.w3.org/TR/2001/REC-SVG-20010904/DTD/svg10.dtd">
<svg version="1.0" xmlns="http://www.w3.org/2000/svg"
 width="700.000000pt" height="700.000000pt" viewBox="0 0 700.000000 700.000000"
 preserveAspectRatio="xMidYMid meet">
<metadata>
Created by potrace 1.11, written by Peter Selinger 2001-2013
</metadata>
<g transform="translate(0.000000,700.000000) scale(0.100000,-0.100000)"
fill="#000000" stroke="none">
<path d="M4604 6274 c-131 -109 -272 -224 -311 -257 -43 -35 -70 -64 -66 -71
4 -6 35 -48 70 -93 272 -359 453 -724 544 -1100 11 -45 22 -101 25 -125 3 -24
7 -48 9 -55 19 -59 27 -432 12 -570 -47 -429 -221 -867 -515 -1293 -60 -87
-207 -282 -235 -312 -7 -7 -37 -42 -67 -78 -270 -320 -711 -714 -1160 -1037
-127 -91 -128 -92 -301 -207 -57 -38 -106 -70 -108 -72 -2 -2 6 -36 18 -76 12
-40 43 -143 68 -228 24 -85 46 -156 47 -158 9 -8 99 -14 228 -14 137 0 197 4
291 18 20 3 47 7 60 9 349 48 793 194 1152 378 836 428 1447 1079 1750 1866
77 201 144 477 169 701 14 120 15 480 2 575 -14 105 -16 121 -20 140 -2 11 -7
40 -11 65 -4 25 -16 81 -27 125 -11 44 -21 88 -23 98 -9 45 -90 267 -124 341
-125 271 -327 452 -596 535 -109 33 -190 46 -303 46 -78 0 -79 1 -97 81 -2 10
-13 53 -24 94 -22 77 -109 426 -116 457 -1 10 -10 45 -18 78 -9 33 -18 71 -21
85 -5 26 -6 29 -26 115 -7 28 -14 64 -17 80 -3 17 -8 36 -12 43 -6 10 -76 -43
-247 -184z"/>
<path d="M4239 4354 c-12 -14 -64 -58 -189 -157 -70 -55 -298 -191 -447 -267
-122 -61 -407 -180 -432 -180 -6 0 -19 -4 -29 -10 -33 -18 -389 -121 -462
-134 -14 -2 -52 -11 -85 -19 -33 -9 -87 -21 -120 -26 -33 -6 -71 -13 -85 -16
-22 -4 -90 -16 -180 -30 -14 -2 -47 -7 -75 -11 -27 -3 -58 -8 -68 -10 -10 -2
-48 -6 -85 -9 -37 -3 -74 -8 -82 -10 -8 -2 -53 -7 -99 -10 -47 -4 -92 -8 -100
-10 -17 -3 -214 -15 -336 -21 -38 -1 -173 -3 -298 -4 -169 0 -229 -4 -232 -13
-2 -7 -34 -111 -70 -231 l-67 -220 34 -28 c142 -120 450 -286 697 -377 l55
-20 140 40 c240 70 623 201 771 264 412 177 668 311 908 474 54 36 106 71 115
76 9 6 21 15 27 20 7 6 27 21 45 35 132 98 356 305 449 415 60 71 167 218 211
290 80 130 136 255 89 199z"/>
<path d="M4446 3912 c-81 -125 -164 -233 -276 -355 -80 -88 -220 -224 -289
-280 -372 -304 -805 -560 -1271 -751 -63 -26 -128 -54 -145 -62 -104 -48 -560
-201 -790 -264 -44 -13 -109 -31 -145 -41 -36 -10 -82 -21 -103 -25 -20 -3
-39 -10 -42 -14 -5 -7 -10 -123 -19 -413 -3 -80 -11 -72 147 -131 143 -53 309
-95 527 -130 48 -8 212 -23 327 -31 l62 -3 103 70 c178 122 481 351 593 449
316 275 491 446 660 644 33 39 62 72 65 75 39 35 242 320 319 449 132 219 269
540 298 701 2 14 9 45 14 70 12 50 21 120 17 120 -2 0 -25 -35 -52 -78z"/>
</g>
</svg>
